<svg width="225" height="43" viewBox="0 0 225 43" fill="none" xmlns="http://www.w3.org/2000/svg">
<path d="M12.3952 2.97264C12.6526 1.25494 14.3059 -0.0717039 16.0385 0.00749845C19.7214 0.00749845 23.4093 -0.0123021 27.0922 0.0124486C28.9287 -0.0618037 30.6068 1.52719 30.6513 3.36865C30.7206 6.23479 30.6266 9.10588 30.6909 11.972C31.5721 12.368 32.5472 12.2294 33.4878 12.2393C35.3243 12.2195 37.1657 12.2294 39.0072 12.2492C40.3536 12.2938 41.8783 12.8086 42.497 14.1006C43.2396 15.3629 43.1208 17.0261 42.205 18.1696C40.6308 20.1249 38.3142 21.2931 36.0222 22.1941C35.5619 23.2534 34.76 24.4315 33.468 24.4266C31.9235 24.6345 30.2306 23.2732 30.4434 21.6496C30.4137 20.1002 31.9483 18.7834 33.4729 18.9616C34.2352 19.026 34.7847 19.6398 35.4876 19.8675C36.0272 19.8626 36.4925 19.5507 36.9529 19.3032C38.131 18.6052 39.3685 17.8924 40.1606 16.739C40.5368 16.1994 40.5566 15.3183 40.0071 14.8827C38.5369 14.457 37.0024 14.7985 35.5074 14.7094C33.1413 14.556 30.7701 14.7639 28.404 14.5708C28.2951 10.9226 28.3495 7.26937 28.3644 3.62111C28.1664 3.02709 27.8495 2.28952 27.0872 2.36377C23.5132 2.28457 19.9343 2.33902 16.3602 2.33902C15.5286 2.23507 14.6871 2.86869 14.692 3.72506C14.5287 7.33867 14.8455 10.977 14.5237 14.5857C11.8507 14.8233 9.15778 14.5411 6.47975 14.7094C5.27686 14.65 4.06902 14.6352 2.87604 14.8381C2.02461 16.5856 2.73743 18.6102 2.42062 20.4615C2.02461 21.5159 1.05438 22.3475 0 22.7039C0 20.709 0.00495015 18.7141 0 16.7192C0.0198006 15.5361 0.178205 14.2095 1.07418 13.3482C1.82166 12.5611 2.93544 12.2789 3.98487 12.2344C6.6926 12.17 9.40528 12.2888 12.113 12.1799C12.6377 9.13558 12.0932 6.02193 12.4051 2.95779L12.3952 2.97264Z" fill="#0470BA"/>
<path d="M17.6375 17.5013C18.8701 17.0211 20.4294 17.9814 20.3205 19.3526C20.5631 20.7585 18.8701 21.9465 17.6177 21.303C15.9347 20.7882 15.999 18.0408 17.6375 17.5013Z" fill="#0470BA"/>
<path d="M7.89541 18.7686C9.25175 17.7934 11.3952 18.3825 12.0585 19.917C12.3357 20.8675 12.2862 22.0011 11.613 22.7782C10.9645 23.496 9.94477 23.9564 8.97454 23.7435C8.39537 23.5802 7.87561 23.2534 7.35584 22.9614C5.67774 23.8178 3.81154 24.6147 2.72745 26.2384C2.39084 26.7087 2.55915 27.3076 2.56905 27.8373C3.06901 28.0155 3.57888 28.2333 4.12339 28.2135C6.91528 28.2234 9.70221 28.1937 12.4941 28.2234C12.4594 25.2434 13.7465 22.1595 16.375 20.5903C17.0383 21.3872 18.0828 21.5555 18.8798 22.1248C18.9491 21.9714 19.0926 21.6694 19.1619 21.5159C19.9045 22.5703 20.6767 23.6495 21.7311 24.4167C22.033 24.6593 22.4934 24.5553 22.7409 24.2831C23.3151 23.8079 23.7408 23.1841 24.2062 22.605C25.1813 22.7832 26.0476 22.3228 26.7505 21.6892C29.1464 22.9069 30.1463 25.6988 30.3641 28.2234C33.2303 28.1937 36.1014 28.2184 38.9675 28.1937C39.517 28.164 40.3189 28.1491 40.4476 27.466C40.804 25.7335 40.3882 23.9415 40.6605 22.1991C41.0466 21.1892 42.0762 20.6497 42.8435 19.9616C43.284 20.7685 43.0217 21.6744 43.0167 22.5357C42.9821 24.09 43.0613 25.6444 42.992 27.1987C42.9177 28.862 41.5911 30.4114 39.9031 30.5797C36.8587 30.9014 33.7896 30.5054 30.7453 30.7975C30.5522 33.8418 30.8245 36.906 30.6017 39.9553C30.3938 41.668 28.7553 42.8857 27.0921 42.9451C23.9982 43.0491 20.8995 42.9501 17.8056 42.9946C16.6522 42.9946 15.4295 43.0837 14.3702 42.5343C13.1772 41.9502 12.3802 40.6829 12.301 39.3711C12.2317 36.505 12.5238 33.6141 12.1476 30.7628C9.2864 30.5945 6.41036 30.8222 3.54423 30.6391C2.21264 30.5549 0.816695 29.8371 0.311779 28.5452C-0.386192 26.9661 0.202876 25.0553 1.44041 23.9217C2.92546 22.5604 4.72236 21.5803 6.58362 20.8526C6.91033 20.1052 7.18259 19.2537 7.89541 18.7686ZM17.1868 24.1247C17.4987 25.09 18.5679 25.4266 19.3748 25.877C19.9243 25.7137 20.4886 25.6246 21.0529 25.5553C19.8896 24.8078 18.662 23.8871 17.1868 24.1197V24.1247ZM24.2606 25.288C23.4933 25.585 22.4934 25.684 22.0825 26.4908C23.6814 26.872 25.0873 26.0305 26.2308 25.0108C25.5674 24.9563 24.7457 24.6642 24.2606 25.283V25.288ZM14.8108 26.8374C14.0138 27.6789 14.692 28.8224 14.6524 29.8074C14.6425 32.8122 14.6524 35.8169 14.6623 38.8217C14.6326 39.381 14.9048 39.886 15.1276 40.3859C16.4988 40.5592 17.8848 40.3958 19.2511 40.574C19.4491 40.5443 19.85 40.475 20.053 40.4453C20.0282 36.708 20.053 32.9706 20.0282 29.2332C19.9985 28.4066 20.147 27.5947 20.3104 26.7928C19.0976 26.8819 17.9492 26.4809 16.7908 26.2087C16.0533 25.9711 15.2563 26.1988 14.8108 26.8473V26.8374ZM24.9734 27.0849C23.924 27.3274 22.5528 27.6987 21.7756 26.7037C20.7658 26.7136 20.6618 27.8868 20.6074 28.6442C20.548 32.5795 20.6272 36.5149 20.5876 40.4552C22.8449 40.4849 25.1021 40.5295 27.3544 40.4404C28.0475 40.48 28.3098 39.6582 28.3197 39.0939C28.4039 35.4209 28.2108 31.738 28.4237 28.0699C28.4484 27.5353 27.9732 27.1591 27.7307 26.7285C26.7901 26.6295 25.8595 26.778 24.9685 27.0898L24.9734 27.0849Z" fill="#0470BA"/>
<path d="M24.1973 18.9022C25.1922 18.6745 26.1526 18.0657 27.1971 18.3775C27.4644 19.323 26.9397 20.1596 26.7169 21.0506C26.5387 22.402 24.5586 22.8525 23.6775 21.8921C22.7667 21.0655 23.0142 19.3379 24.1973 18.9022Z" fill="#0470BA"/>
<path d="M95.8595 33.5052C97.0377 31.139 97.5327 28.4065 99.0128 26.2284L99.7702 26.1888C101.359 29.7876 101.82 33.7873 102.983 37.5445C103.963 34.8962 104.884 32.2231 105.968 29.6143C106.384 29.5797 106.799 29.545 107.215 29.5153C108.161 31.8469 109.022 34.2081 109.997 36.5297C110.532 35.5248 110.967 34.4358 111.74 33.5844C122.224 33.3913 132.718 33.5547 143.208 33.5002C147.059 33.5398 150.915 33.4062 154.766 33.5992C154.742 33.921 154.697 34.5694 154.677 34.8912C153.291 35.6981 151.618 35.2872 150.098 35.3763C137.594 35.3961 125.085 35.2922 112.581 35.4308C111.952 36.8564 111.344 38.3266 110.378 39.5691C110.096 39.5641 109.527 39.5493 109.24 39.5443C108.067 37.5445 107.735 35.1635 106.522 33.1735C105.661 35.9555 104.344 38.5741 103.602 41.3908C103.082 41.4056 102.567 41.4106 102.052 41.4205C101.181 37.5791 100.033 33.8071 99.191 29.9559C98.394 31.7182 98.2455 34.02 96.7258 35.312C84.1623 35.4555 71.589 35.312 59.0205 35.3862C57.9315 35.411 56.8524 35.2377 55.7881 35.0298C55.8326 34.5397 55.8821 34.0546 55.9267 33.5695C69.2376 33.421 82.5486 33.525 95.8595 33.5052Z" fill="#0470BA"/>
<path d="M163.227 27.9412C164.797 27.8472 167.831 27.9759 167.217 30.2678C165.628 29.5797 163.816 28.565 162.094 29.4708C159.891 30.2827 159.044 33.1389 160.213 35.0992C161.257 36.7179 163.584 37.6584 165.356 36.6783C166.019 36.4704 166.782 35.5051 167.366 36.3367C167.593 37.5891 166.113 37.8564 165.227 38.1138C162.861 38.7474 159.896 37.8762 158.832 35.5199C157.005 32.4063 159.47 27.6739 163.227 27.9412Z" fill="#0470BA"/>
<path d="M216.749 28.0105C219.194 27.961 221.64 28.0006 224.085 28.0105C224.085 28.3025 224.09 28.8817 224.095 29.1688C222.15 29.1836 220.209 29.1886 218.269 29.1886C218.259 30.1786 218.254 31.1736 218.239 32.1686C219.932 32.4012 221.64 32.4309 223.348 32.3913C223.333 32.6933 223.313 33.2972 223.298 33.5992C221.625 33.6041 219.947 33.614 218.274 33.5992C218.269 34.7229 218.269 35.8515 218.264 36.9801C220.274 36.9801 222.278 36.9801 224.288 36.995C224.293 37.2771 224.303 37.8316 224.308 38.1137C221.793 38.1385 219.274 38.1434 216.759 38.1335C216.744 34.7575 216.779 31.3865 216.749 28.0105Z" fill="#0470BA"/>
<path d="M176.746 38.1335C177.944 34.6338 179.686 31.3568 181.196 27.9857C181.597 28.0055 182.399 28.0402 182.8 28.055C184.156 31.4607 185.874 34.713 187.26 38.1038H185.701C185.518 37.6682 185.335 37.2326 185.146 36.797C185.062 36.5049 184.889 35.9208 184.805 35.6287C182.949 35.6089 181.092 35.6188 179.236 35.6139C178.86 36.4505 178.484 37.2821 178.112 38.1137L176.746 38.1335ZM179.761 34.4556C181.127 34.4605 182.503 34.4605 183.874 34.4556C183.508 32.6537 182.652 31.0251 181.855 29.3866C181.221 31.1043 180.434 32.7577 179.761 34.4556Z" fill="#0470BA"/>
<path d="M197.426 28.0056C199.485 28.0452 201.574 27.8026 203.614 28.1937C206.52 29.258 206.44 33.7527 203.599 34.8566C204.401 35.9209 205.178 37.0198 205.698 38.2574C203.738 38.4306 203.178 36.3317 202.173 35.0893C201.099 35.1041 200.025 35.114 198.951 35.1239C198.946 36.1585 198.936 37.198 198.926 38.2375C198.56 38.188 197.832 38.0989 197.471 38.0544C197.352 34.7081 197.471 31.3568 197.426 28.0056ZM198.951 29.1837C198.946 30.6836 198.941 32.1885 198.931 33.6884C200.441 33.6488 202.035 33.9161 203.485 33.3815C204.693 32.436 204.356 30.8272 203.718 29.6589C202.158 29.258 200.555 29.1045 198.951 29.1837Z" fill="#0470BA"/>
<path d="M130.666 4.37352C133.651 4.03691 137.017 3.8884 139.556 5.77936C139.106 6.72484 138.67 7.68022 138.244 8.64055C136.116 7.68022 133.631 6.9377 131.334 7.74457C130.398 8.02673 129.775 9.11081 130.225 10.0414C132.972 12.1948 137.294 11.2295 139.526 14.2144C140.977 16.5459 140.002 20.0011 137.442 21.1397C133.799 22.8574 129.309 22.2584 125.884 20.2784C126.052 19.125 126.582 18.0854 127.156 17.0954C129.74 18.7092 133.165 19.5259 136.002 18.0755C135.957 17.3974 136.363 16.5063 135.779 15.9866C132.829 14.1649 128.319 14.9173 126.448 11.4869C124.998 8.38809 127.507 4.90319 130.666 4.37352Z" fill="black"/>
<path d="M187.097 10.586C187.924 7.49215 190.671 5.11608 193.73 4.35871C196.383 4.0419 199.319 3.93795 201.626 5.52199C206.378 8.14557 207.264 15.4817 203.418 19.2488C202.046 20.7338 200.155 21.5753 198.22 22.0406C194.715 22.4911 190.79 21.5308 188.607 18.5854C186.76 16.3826 186.577 13.2937 187.097 10.586ZM194.067 7.87332C192.978 8.64554 191.814 9.48211 191.324 10.784C190.74 12.1156 190.983 13.6006 191.057 15.0015C192.097 17.7489 195.24 19.3181 198.047 18.3528C202.343 17.2935 202.962 10.6454 199.339 8.41783C197.779 7.3783 195.819 7.63076 194.067 7.87332Z" fill="black"/>
<path d="M55.1553 4.37366C56.4968 4.37366 57.8333 4.37366 59.1748 4.37366C59.1897 10.1752 59.1847 15.9768 59.1748 21.7784C57.8284 21.7784 56.482 21.7734 55.1355 21.7685C55.1454 15.9719 55.1108 10.1752 55.1504 4.37861L55.1553 4.37366Z" fill="black"/>
<path d="M63.3087 4.36866C64.4175 4.36866 65.5214 4.36866 66.6253 4.36371C69.5062 7.88822 72.4466 11.3632 75.2682 14.9372C75.3326 11.4127 75.2732 7.88822 75.3029 4.36371C76.6345 4.36866 77.9611 4.37361 79.2927 4.36371C79.2976 10.1653 79.2976 15.9669 79.2927 21.7734C77.971 21.5704 76.1444 22.3773 75.2831 21.0111C72.6496 17.7836 70.0409 14.5363 67.3331 11.3781C67.2539 14.8432 67.3183 18.3083 67.2985 21.7734C65.9669 21.7684 64.6353 21.7734 63.3037 21.7635C63.3186 15.9619 63.3037 10.1653 63.3087 4.36866Z" fill="black"/>
<path d="M83.4004 21.7635C83.4103 15.9669 83.3658 10.1653 83.4202 4.36865C87.7813 4.36865 92.1424 4.36865 96.5035 4.36865C96.5035 5.48244 96.5035 6.60117 96.4985 7.71495C93.4888 7.7199 90.4791 7.69515 87.4744 7.7199C87.4744 9.21485 87.4744 10.7098 87.4744 12.2047C90.1623 12.2047 92.8503 12.1948 95.5382 12.2146C95.5382 13.3334 95.5382 14.4472 95.4887 15.5659C92.8156 15.5411 90.1425 15.5461 87.4694 15.5609C87.4843 17.6301 87.4694 19.6993 87.4793 21.7684C86.1181 21.7783 84.7568 21.7734 83.4004 21.7635Z" fill="black"/>
<path d="M103.361 4.91818C107.157 3.42819 112.058 3.9727 114.86 7.1705C117.855 10.4525 117.815 15.9966 114.716 19.1994C110.588 23.6446 102.158 23.006 99.1531 17.5807C96.4552 13.1899 98.5293 6.78934 103.361 4.91818ZM105.42 7.84867C103.895 8.73475 102.336 10.101 102.257 11.9919C102.138 13.4918 102.084 15.1798 103.108 16.4124C104.712 18.8776 108.38 19.2241 110.741 17.6995C113.756 15.5907 113.687 10.4129 110.568 8.43279C109.068 7.37841 107.128 7.63087 105.42 7.84867Z" fill="black"/>
<path d="M143.001 4.36866C147.377 4.36866 151.753 4.36371 156.129 4.36866C156.124 5.47749 156.124 6.59128 156.119 7.70011C153.094 7.71001 150.075 7.69516 147.05 7.70506C147.05 8.95745 147.055 10.2049 147.045 11.4573C149.758 11.4969 152.476 11.3137 155.178 11.5909C155.159 12.5216 155.154 13.4571 155.169 14.3927C152.471 14.6996 149.748 14.467 147.04 14.5511C147.055 15.8679 147.05 17.1895 147.04 18.5063C150.184 18.5162 153.322 18.5013 156.466 18.5261C156.461 19.6052 156.456 20.6844 156.456 21.7635C151.966 21.7684 147.481 21.7783 142.991 21.7585C143.016 15.9619 142.986 10.1653 143.001 4.36371V4.36866Z" fill="black"/>
<path d="M159.688 21.7734C159.678 15.9669 159.673 10.1653 159.688 4.36371C160.792 4.36866 161.901 4.37361 163.005 4.38351C165.836 7.89812 168.737 11.3533 171.568 14.863C171.648 11.3632 171.568 7.86841 171.623 4.36866C172.945 4.36866 174.271 4.36866 175.593 4.37856C175.603 10.1801 175.573 15.9768 175.608 21.7783C174.43 21.6447 173.083 22.0704 172.019 21.5259C169.267 18.1152 166.48 14.7392 163.698 11.3533C163.619 14.8234 163.663 18.2934 163.663 21.7635C162.336 21.7734 161.01 21.7734 159.688 21.7734Z" fill="black"/>
<path d="M179.676 4.37854C181.012 4.36864 182.354 4.36369 183.695 4.36864C183.735 10.1702 183.69 15.9718 183.72 21.7734C182.369 21.7734 181.017 21.7734 179.666 21.7387C179.676 15.952 179.661 10.1653 179.676 4.37854Z" fill="black"/>
<path d="M208.847 4.38844C211.703 4.38844 214.569 4.30429 217.425 4.41319C220.069 4.58645 223.004 6.06159 223.692 8.82378C224.628 11.6998 223.242 15.0115 220.485 16.2936C221.727 18.1251 223.009 19.9369 224.267 21.7635C222.836 21.7635 221.405 21.8377 219.98 21.7387C218.698 20.2537 217.737 18.5013 216.539 16.942C215.307 16.9618 214.074 16.9717 212.847 17.0163C212.861 18.5954 212.861 20.1794 212.856 21.7635C211.515 21.7783 210.178 21.7783 208.837 21.7635C208.862 15.9718 208.847 10.1801 208.847 4.38844ZM212.847 7.7892C212.871 9.77421 212.861 11.7592 212.861 13.7442C214.658 13.6749 216.579 14.066 218.287 13.3779C220.168 12.4819 220.202 9.94251 219.029 8.45252C218.762 8.31391 218.222 8.03175 217.955 7.89315C216.257 7.71989 214.549 7.71989 212.847 7.7892Z" fill="black"/>
</svg>
